<svg version="1.1" xmlns="http://www.w3.org/2000/svg" xmlns:xlink="http://www.w3.org/1999/xlink" width="300" height="300" viewBox="0 0 300 300"><defs/><g transform="scale(1,1) translate(50,50)"><path fill="none" stroke="rgb(0,0,0)" paint-order="fill stroke markers" d=" M 0 0 L 200 0" stroke-opacity="1" stroke-miterlimit="10" stroke-width="10"/><path fill="none" stroke="rgb(0,0,0)" paint-order="fill stroke markers" d=" M 0 50 L 200 0" stroke-opacity="1" stroke-miterlimit="10" stroke-width="10"/><path fill="none" stroke="rgb(0,0,0)" paint-order="fill stroke markers" d=" M 0 100 L 200 0" stroke-opacity="1" stroke-miterlimit="10" stroke-width="10"/><path fill="none" stroke="rgb(0,0,0)" paint-order="fill stroke markers" d=" M 0 150 L 200 0" stroke-opacity="1" stroke-miterlimit="10" stroke-width="10"/><path fill="none" stroke="rgb(0,0,0)" paint-order="fill stroke markers" d=" M 0 200 L 200 0" stroke-opacity="1" stroke-miterlimit="10" stroke-width="10"/><path fill="none" stroke="rgb(0,0,0)" paint-order="fill stroke markers" d=" M 50 0 L 200 0" stroke-opacity="1" stroke-miterlimit="10" stroke-width="10"/><path fill="none" stroke="rgb(0,0,0)" paint-order="fill stroke markers" d=" M 50 50 L 200 200" stroke-opacity="1" stroke-miterlimit="10" stroke-width="10"/><path fill="none" stroke="rgb(0,0,0)" paint-order="fill stroke markers" d=" M 50 100 L 200 200" stroke-opacity="1" stroke-miterlimit="10" stroke-width="10"/><path fill="none" stroke="rgb(0,0,0)" paint-order="fill stroke markers" d=" M 50 150 L 200 200" stroke-opacity="1" stroke-miterlimit="10" stroke-width="10"/><path fill="none" stroke="rgb(0,0,0)" paint-order="fill stroke markers" d=" M 50 200 L 200 200" stroke-opacity="1" stroke-miterlimit="10" stroke-width="10"/><path fill="none" stroke="rgb(0,0,0)" paint-order="fill stroke markers" d=" M 100 0 L 200 0" stroke-opacity="1" stroke-miterlimit="10" stroke-width="10"/><path fill="none" stroke="rgb(0,0,0)" paint-order="fill stroke markers" d=" M 100 50 L 200 200" stroke-opacity="1" stroke-miterlimit="10" stroke-width="10"/><path fill="none" stroke="rgb(0,0,0)" paint-order="fill stroke markers" d=" M 100 100 L 200 200" stroke-opacity="1" stroke-miterlimit="10" stroke-width="10"/><path fill="none" stroke="rgb(0,0,0)" paint-order="fill stroke markers" d=" M 100 150 L 200 200" stroke-opacity="1" stroke-miterlimit="10" stroke-width="10"/><path fill="none" stroke="rgb(0,0,0)" paint-order="fill stroke markers" d=" M 100 200 L 200 200" stroke-opacity="1" stroke-miterlimit="10" stroke-width="10"/><path fill="none" stroke="rgb(0,0,0)" paint-order="fill stroke markers" d=" M 150 0 L 200 0" stroke-opacity="1" stroke-miterlimit="10" stroke-width="10"/><path fill="none" stroke="rgb(0,0,0)" paint-order="fill stroke markers" d=" M 150 50 L 200 200" stroke-opacity="1" stroke-miterlimit="10" stroke-width="10"/><path fill="none" stroke="rgb(0,0,0)" paint-order="fill stroke markers" d=" M 150 100 L 200 200" stroke-opacity="1" stroke-miterlimit="10" stroke-width="10"/><path fill="none" stroke="rgb(0,0,0)" paint-order="fill stroke markers" d=" M 150 150 L 200 200" stroke-opacity="1" stroke-miterlimit="10" stroke-width="10"/><path fill="none" stroke="rgb(0,0,0)" paint-order="fill stroke markers" d=" M 150 200 L 200 200" stroke-opacity="1" stroke-miterlimit="10" stroke-width="10"/><path fill="none" stroke="rgb(0,0,0)" paint-order="fill stroke markers" d=" M 200 0 L 200 0" stroke-opacity="1" stroke-miterlimit="10" stroke-width="10"/><path fill="none" stroke="rgb(0,0,0)" paint-order="fill stroke markers" d=" M 200 50 L 200 200" stroke-opacity="1" stroke-miterlimit="10" stroke-width="10"/><path fill="none" stroke="rgb(0,0,0)" paint-order="fill stroke markers" d=" M 200 100 L 200 200" stroke-opacity="1" stroke-miterlimit="10" stroke-width="10"/><path fill="none" stroke="rgb(0,0,0)" paint-order="fill stroke markers" d=" M 200 150 L 200 200" stroke-opacity="1" stroke-miterlimit="10" stroke-width="10"/><path fill="none" stroke="rgb(0,0,0)" paint-order="fill stroke markers" d=" M 200 200 L 200 200" stroke-opacity="1" stroke-miterlimit="10" stroke-width="10"/></g></svg>